<svg width="64" height="64" viewBox="0 0 64 64" fill="none" xmlns="http://www.w3.org/2000/svg">
<path d="M31.8241 37.3293C25.3081 37.3293 20.008 42.6294 20.008 49.1453C20.008 55.6613 25.3081 60.9614 31.8241 60.9614C38.34 60.9614 43.6401 55.6613 43.6401 49.1453C43.6401 42.6294 38.34 37.3293 31.8241 37.3293ZM31.0313 59.2289C26.1009 58.8458 22.1548 54.9175 21.745 49.9916H27.8111C28.1496 51.595 29.4234 52.8554 31.0357 53.1716V59.2289H31.0313ZM29.4145 49.1453C29.4145 47.8181 30.4968 46.7358 31.8241 46.7358C33.1513 46.7358 34.2336 47.8181 34.2336 49.1453C34.2336 50.4726 33.1513 51.5549 31.8241 51.5549C30.4968 51.5549 29.4145 50.4726 29.4145 49.1453ZM32.7282 59.2199V53.1449C34.2826 52.793 35.5074 51.5549 35.837 49.9916H41.9031C41.4934 54.8774 37.6052 58.7835 32.7282 59.2199ZM35.837 48.2947C35.445 46.4374 33.7927 45.0389 31.8241 45.0389C29.8555 45.0389 28.2031 46.4374 27.8067 48.2947H21.7405C22.1726 43.1104 26.5284 39.0262 31.8196 39.0262C37.1108 39.0262 41.4666 43.1104 41.8987 48.2947H35.8325H35.837ZM52.6993 35.4275L40.4556 30.3902C42.6558 28.7912 44.3438 26.5688 45.2613 24.0256C45.4128 23.6203 45.5464 23.2106 45.6711 22.7874C45.9918 21.6161 46.1476 20.4759 46.1476 19.3001V16.9885C46.1476 15.3807 45.8581 13.804 45.3103 12.4189C45.2881 12.3432 45.2613 12.2808 45.2435 12.2318C44.4864 10.2098 43.3462 8.47722 41.8719 7.10543C39.2531 4.5222 35.5564 3.03906 31.7305 3.03906C25.6867 3.03906 20.2351 6.74021 18.1552 12.2452C18.1329 12.2942 18.1196 12.3387 18.1107 12.3788C17.5896 13.7862 17.3134 15.3762 17.3134 16.9885V19.3001C17.3134 20.4848 17.4604 21.625 17.7588 22.7741C17.8791 23.2373 18.0038 23.647 18.1507 24.0345C19.1529 26.6623 20.9344 28.9338 23.2059 30.5282L11.2963 35.4319C9.3722 36.2247 8.11621 38.0998 8.11621 40.1797V55.786H10.1294V38.0909L25.3793 31.8154C27.3212 32.7641 29.4902 33.2674 31.735 33.2674C33.9797 33.2674 36.3358 32.724 38.3356 31.6951L53.8706 38.0909V53.8931H55.8838V40.1797C55.8838 38.0998 54.6278 36.2247 52.7037 35.4319L52.6993 35.4275ZM19.9946 13.0825C20.0124 13.0335 20.0303 12.9934 20.0392 12.9533C21.8207 8.22335 26.5195 5.0433 31.735 5.0433C35.0397 5.0433 38.2198 6.31264 40.4868 8.55293C41.7383 9.71984 42.7004 11.1718 43.3462 12.8776L43.4219 13.0825C43.698 13.7684 43.8985 14.5166 44.0187 15.2961C43.4041 15.0377 42.6068 14.7349 41.6359 14.4409C41.6225 14.3429 41.6003 14.245 41.5602 14.1514C41.4577 13.9154 38.9413 8.4015 31.2272 8.4015C23.9853 8.4015 21.9721 13.9955 21.8875 14.2316C21.8875 14.2405 21.8875 14.2494 21.8786 14.2628C20.8854 14.5701 20.0882 14.8908 19.4735 15.1803C19.5849 14.4498 19.7586 13.7417 19.9991 13.087L19.9946 13.0825ZM38.7765 13.7283C36.7144 13.3141 34.1935 13.0068 31.2183 13.0068C28.6128 13.0068 26.426 13.2428 24.6222 13.5813C25.5664 12.2808 27.5261 10.5082 31.2183 10.5082C35.3827 10.5082 37.6764 12.3966 38.7765 13.7239V13.7283ZM38.3356 29.3791C38.3044 29.397 38.2777 29.4148 38.2688 29.4237C36.3536 30.6173 34.0955 31.2498 31.7305 31.2498C29.3655 31.2498 27.1074 30.6173 25.219 29.4415C25.1834 29.4148 25.1522 29.397 25.1032 29.3658L25.0631 29.3391C22.7783 27.9717 20.9878 25.8339 20.0303 23.3219C19.9145 23.0057 19.8076 22.6583 19.7051 22.2619C19.4468 21.2776 19.3221 20.3066 19.3221 19.2956V17.6477C20.2084 17.0954 23.8873 15.1224 31.2183 15.1224C38.5494 15.1224 42.9765 17.0999 44.139 17.6878V19.2956C44.139 20.2888 44.0053 21.2553 43.7381 22.2307C43.6312 22.5915 43.5065 22.9611 43.3729 23.3308C42.4732 25.825 40.705 27.9584 38.398 29.3391L38.3356 29.3791Z" fill="#00B7B5"/>
</svg>
