<svg width="65" height="64" viewBox="0 0 65 64" fill="none" xmlns="http://www.w3.org/2000/svg">
<g clip-path="url(#clip0_8380_12425)">
<path d="M33.9256 31.5141H30.831L33.3183 26.0266L33.4803 25.6667H31.5506L29.0633 31.1587C28.6135 32.1483 29.3377 33.2728 30.4262 33.2683H34.4653L30.9929 38.8322H33.0665L35.6708 34.6536C36.5254 33.2818 35.5403 31.5096 33.9256 31.5096V31.5141ZM58.3359 21.9829C59.8518 21.9829 61.0797 20.755 61.0797 19.2392V16.6843H66.891V14.7637H61.8983C60.3825 14.7637 59.1546 15.9916 59.1546 17.5074V20.0578H52.5111L53.1408 18.9828C54.0584 17.4175 53.802 15.4339 52.5201 14.152L50.433 12.0649C49.1511 10.783 47.1675 10.5266 45.6022 11.4442L42.4582 13.2884C41.5901 12.8341 40.695 12.4383 39.7729 12.1009C39.467 11.9885 39.1567 11.885 38.8463 11.7906L37.9197 8.26416C37.4655 6.50996 35.8777 5.29102 34.0695 5.29102H31.1188C29.3062 5.29102 27.7229 6.51446 27.2641 8.26416L26.342 11.7906C26.0317 11.885 25.7213 11.993 25.4154 12.1009C24.4934 12.4338 23.5983 12.8296 22.7302 13.2884L19.5816 11.4442C18.0163 10.5266 16.0327 10.783 14.7508 12.0649L12.6683 14.152C11.3863 15.4339 11.13 17.4175 12.0475 18.9828L12.6773 20.0578H5.84937V17.5074C5.84937 15.9916 4.62143 14.7637 3.10562 14.7637H-1.8871V16.6843H3.92425V19.2392C3.92425 20.755 5.15219 21.9829 6.668 21.9829H13.8017L13.8872 22.1313C13.7028 22.4732 13.5319 22.8195 13.3744 23.1749C13.3025 23.3278 13.235 23.4807 13.1675 23.6382C13.0956 23.8046 13.0281 23.971 12.9561 24.1419C12.9561 24.1509 12.9471 24.1599 12.9471 24.1689C12.8797 24.3263 12.8212 24.4883 12.7627 24.6457C12.7582 24.6637 12.7492 24.6772 12.7447 24.6952C12.6818 24.8661 12.6233 25.037 12.5648 25.2079C12.5063 25.3834 12.4434 25.5633 12.3894 25.7432L8.863 26.6653C7.1088 27.1241 5.88535 28.7073 5.88535 30.52V31.2802H-1.8871V33.2818H5.88535V33.4707C5.88535 35.2833 7.1088 36.8666 8.863 37.3254L12.3894 38.2475C12.4389 38.4049 12.4883 38.5579 12.5378 38.7108C12.6413 39.0211 12.7537 39.327 12.8707 39.6329C12.9876 39.9387 13.1136 40.2401 13.244 40.5414C13.3744 40.8383 13.5139 41.1307 13.6623 41.4275C13.7163 41.54 13.7748 41.6524 13.8332 41.7649H6.6635C5.14769 41.7649 3.91975 42.9928 3.91975 44.5086V47.0635H-1.8916V48.9841H3.10112C4.61693 48.9841 5.84487 47.7562 5.84487 46.2403V43.69H12.8167L12.043 45.0124C11.13 46.5777 11.3818 48.5613 12.6638 49.8432L14.7508 51.9303C16.0282 53.2122 18.0118 53.4685 19.5771 52.551L22.7257 50.7068C23.8772 51.314 25.0916 51.8178 26.3375 52.2046L27.2596 55.731C27.7184 57.4852 29.3017 58.7087 31.1144 58.7087H34.065C35.8732 58.7087 37.461 57.4852 37.9152 55.731L38.8418 52.2046C40.0878 51.8178 41.2977 51.314 42.4537 50.7068L45.5977 52.551C47.163 53.4685 49.1466 53.2122 50.4285 51.9303L52.5156 49.8432C53.7975 48.5658 54.0539 46.5777 53.1363 45.0169L52.3627 43.69H59.1501V46.2403C59.1501 47.7562 60.378 48.9841 61.8938 48.9841H66.8865V47.0635H61.0752V44.5086C61.0752 42.9928 59.8472 41.7649 58.3314 41.7649H51.3461C51.7824 40.9283 52.1603 40.0647 52.4796 39.1786C52.5921 38.8727 52.6955 38.5623 52.79 38.252L56.3164 37.3299C58.0706 36.8711 59.2895 35.2878 59.2895 33.4752V33.2863H66.882V31.2847H59.2895V30.5245C59.2895 28.7163 58.0661 27.1286 56.3164 26.6698L52.79 25.7477C52.6955 25.4373 52.5876 25.127 52.4796 24.8211C52.4166 24.6457 52.3537 24.4748 52.2862 24.3038C52.2367 24.1734 52.1827 24.0475 52.1288 23.9215C52.1288 23.9125 52.1288 23.908 52.1198 23.899C52.0703 23.7686 52.0163 23.6426 51.9578 23.5167C51.9399 23.4672 51.9174 23.4223 51.8949 23.3773C51.8454 23.2603 51.7914 23.1434 51.7374 23.0264C51.598 22.7251 51.4496 22.4282 51.2966 22.1358L51.3821 21.9874H58.3314L58.3359 21.9829ZM49.2861 22.5991C49.7539 23.4357 50.1587 24.3038 50.5005 25.1944C50.604 25.4598 50.6984 25.7342 50.7884 26.0086C50.8783 26.2784 50.9638 26.5528 51.0358 26.8317L51.1887 27.3804L57.3014 28.9817V35.0045L51.5036 36.5248L51.1887 36.6057L51.0358 37.1545C50.9323 37.5278 50.8154 37.8967 50.6894 38.261C50.5635 38.6208 50.4285 38.9762 50.2846 39.327C49.9922 40.0332 49.6594 40.7214 49.2816 41.3871L48.9982 41.8863L52.1917 47.3378L47.9322 51.5974L42.4807 48.4084L41.9814 48.6872H41.9724C40.641 49.4429 39.2242 50.0276 37.7533 50.4414L37.2046 50.5944L35.6078 56.7071H29.585L27.9838 50.5944L27.4305 50.4414C25.9552 50.0321 24.5383 49.4429 23.2025 48.6872L22.7032 48.4039L17.2517 51.5974L12.9921 47.3378L16.1812 41.8863L15.8978 41.3781C15.8033 41.2116 15.7134 41.0452 15.6234 40.8743C15.448 40.5414 15.2861 40.2041 15.1286 39.8578C15.0387 39.6553 14.9532 39.4574 14.8723 39.2505C14.7508 38.9627 14.6384 38.6703 14.5349 38.3689C14.3955 37.9686 14.265 37.5638 14.1526 37.1545L13.9997 36.6012L7.88694 35V28.9772L13.9997 27.3759L14.1526 26.8272C14.3055 26.274 14.4854 25.7297 14.6878 25.1899C14.8228 24.8346 14.9712 24.4793 15.1241 24.1284C15.2456 23.8675 15.367 23.6112 15.4975 23.3548C15.6279 23.0984 15.7629 22.8465 15.9023 22.5946L16.1812 22.0954L12.9921 16.6438L17.2517 12.3843L22.4243 15.4114L22.7077 15.5778L23.207 15.2945C24.2055 14.7322 25.258 14.2599 26.342 13.8866C26.7064 13.7607 27.0662 13.6482 27.4395 13.5448L27.9928 13.3873L29.594 7.27461H35.6168L37.2136 13.3873L37.7488 13.5358C38.1222 13.6392 38.4955 13.7562 38.8643 13.8821C39.2197 14.0035 39.575 14.1385 39.9258 14.2824C40.632 14.5748 41.3247 14.9076 41.9949 15.29L42.4942 15.5733L47.9457 12.3798L52.2097 16.6393L49.0162 22.0909L49.2996 22.5901L49.2861 22.5991ZM32.4547 21.5556C26.5309 21.5556 21.7136 26.3729 21.7136 32.2967C21.7136 38.2205 26.5309 43.0378 32.4547 43.0378C38.3785 43.0378 43.1958 38.2205 43.1958 32.2967C43.1958 26.3729 38.3785 21.5556 32.4547 21.5556ZM32.4547 41.3736C27.4485 41.3736 23.3779 37.3029 23.3779 32.2967C23.3779 27.2905 27.4485 23.2198 32.4547 23.2198C37.461 23.2198 41.5316 27.2905 41.5316 32.2967C41.5316 37.3029 37.461 41.3736 32.4547 41.3736Z" fill="#00B7B5"/>
</g>
<defs>
<clipPath id="clip0_8380_12425">
<rect width="64" height="64" fill="white" transform="translate(0.5)"/>
</clipPath>
</defs>
</svg>
