<svg width="64" height="64" viewBox="0 0 64 64" fill="none" xmlns="http://www.w3.org/2000/svg">
<path d="M23.2156 18.5195H14.0128V20.5526H23.2156V18.5195ZM38.2702 39.7094C44.4144 39.6734 49.4071 34.6807 49.4431 28.5365C49.4791 22.2753 44.266 17.2376 38.0048 17.2376H37.1907V27.4569H26.9713V28.2711C26.9713 34.5322 32.009 39.7408 38.2702 39.7094ZM36.1157 29.49C37.8339 29.49 39.2193 28.1002 39.2193 26.3864V19.3247C44.0006 19.8509 47.6889 24.0565 47.392 29.0357C47.1177 33.6461 43.3799 37.3839 38.7695 37.6583C33.7902 37.9552 29.5847 34.2668 29.0584 29.4855H36.1202L36.1157 29.49ZM23.2156 27.2365H14.0128V29.2696H23.2156V27.2365ZM23.2156 35.9581H14.0128V37.9911H23.2156V35.9581ZM52.7041 5.94775H11.296C9.48782 5.94775 8.02148 7.40959 8.02148 9.22226V43.1773C8.02148 44.9855 9.48782 46.4518 11.296 46.4518H30.9835V56.0189H9.03802V58.052H54.9621V56.0189H33.0166V46.4518H52.7041C54.5123 46.4518 55.9786 44.9855 55.9786 43.1773V9.22226C55.9786 7.41408 54.5123 5.94775 52.7041 5.94775ZM53.9455 44.4187H10.0546V13.7022H53.9455V44.4187ZM53.9455 11.6646H10.0546V7.97633H53.9455V11.6646Z" fill="#00B7B5"/>
</svg>
