<svg width="64" height="64" viewBox="0 0 64 64" fill="none" xmlns="http://www.w3.org/2000/svg">
<path d="M31.9952 3.8584C17.7385 3.8584 6.14062 15.5711 6.14062 29.969C6.14062 36.4146 8.47444 42.3114 12.3181 46.8723L12.1979 47.0162C10.2872 49.6835 10.688 53.4438 13.2089 55.6298L16.7631 58.7109L18.5357 56.6283L22.4595 60.1412L23.6354 58.7604L19.7115 55.2475L22.5976 51.8515L26.5215 55.3644L27.6973 53.9835L23.7734 50.4706L25.6173 48.3026L22.0631 45.2215C19.5289 43.022 15.752 43.202 13.4316 45.5589C9.94421 41.3263 7.83754 35.8973 7.83754 29.9735C7.83754 16.5201 18.6738 5.57662 31.9952 5.57662C45.3167 5.57662 56.1529 16.5201 56.1529 29.9735C56.1529 43.4269 45.8155 53.8486 32.9261 54.3479V36.0952C33.5274 36.1717 34.1331 36.2121 34.7299 36.2121C38.6003 36.2121 42.346 34.6739 45.1475 31.8491C48.6794 28.2823 50.1759 23.2041 49.1559 18.2608L49.0312 17.6581L48.4344 17.5322C43.5396 16.4976 38.5112 18.0134 34.9793 21.5803C32.3916 24.1936 30.8996 27.6256 30.6903 31.2194C29.6481 29.4068 28.0981 27.9044 26.183 26.9284C22.8916 25.2551 19.0212 25.3676 15.8278 27.2297L15.3289 27.5221L15.3957 28.1023C15.8099 31.8042 18.0235 35.0112 21.3104 36.6889C22.8604 37.4761 24.535 37.8674 26.2097 37.8674C27.8843 37.8674 29.5367 37.4761 31.0688 36.7069V56.0886H32.935V56.0661C46.7598 55.5668 57.8588 44.0611 57.8588 29.978C57.8588 15.8949 46.2609 3.86739 32.0041 3.86739L31.9952 3.8584ZM13.8992 47.7719L14.4782 47.0927C16.1128 45.1721 18.9855 44.9517 20.8873 46.6024L23.0697 48.496L16.5671 56.1381L14.3847 54.2444C12.4829 52.5937 12.2647 49.6925 13.8992 47.7719ZM22.0988 35.0877C19.52 33.7743 17.7295 31.3319 17.2263 28.4847C19.7961 27.1983 22.8025 27.1983 25.3813 28.5117C27.96 29.8251 29.7505 32.2674 30.2538 35.1146C27.6839 36.4011 24.6776 36.4011 22.0988 35.0877ZM43.8291 30.5087C41.1702 33.194 37.5403 34.5389 33.848 34.287L47.5704 20.4558C47.8153 24.1711 46.4836 27.8325 43.8291 30.5087ZM32.552 32.9286C32.3159 29.2178 33.6521 25.5745 36.2977 22.9027C38.9477 20.2219 42.5687 18.8771 46.252 19.1244L32.5564 32.9286H32.552Z" fill="#00B7B5"/>
</svg>
