<svg width="64" height="64" viewBox="0 0 64 64" fill="none" xmlns="http://www.w3.org/2000/svg">
<path d="M42.5285 31.0822L40.453 31.1362L40.4708 31.7839C40.5331 34.0734 39.7047 36.2504 38.1459 37.9101C36.587 39.5699 34.4759 40.5189 32.2089 40.5819C29.9419 40.6404 27.7862 39.8082 26.1428 38.234C24.4993 36.6597 23.5595 34.5277 23.4972 32.2382C23.3725 27.5109 27.0781 23.5661 31.7591 23.4402C32.9527 23.4042 34.1152 23.6201 35.2108 24.0789L35.8032 24.3263L36.5959 22.3877L36.0036 22.1403C34.6407 21.5736 33.1932 21.3082 31.7012 21.3442C25.8755 21.5016 21.2658 26.4134 21.4172 32.2967C21.4929 35.1484 22.6598 37.7977 24.7086 39.7588C26.6817 41.6479 29.2604 42.6869 31.9728 42.6869C32.0708 42.6869 32.1644 42.6869 32.2623 42.6869C35.0861 42.6105 37.7094 41.432 39.6513 39.3629C41.5932 37.2939 42.622 34.5861 42.5463 31.7389L42.5285 31.0912V31.0822ZM57.0792 26.3099L53.3513 25.3248C53.2489 24.992 53.1375 24.6592 53.0217 24.3353C52.9549 24.1509 52.8881 23.962 52.8169 23.7821C52.7634 23.6426 52.71 23.5077 52.6521 23.3727C52.6521 23.3637 52.6521 23.3547 52.6432 23.3502C52.5897 23.2108 52.5318 23.0759 52.4739 22.9409C52.4561 22.8915 52.4338 22.8375 52.4071 22.788C52.3537 22.6621 52.2958 22.5361 52.2379 22.4147C52.0909 22.0953 51.935 21.776 51.7702 21.4656L53.721 18.1056C54.6875 16.4369 54.4203 14.3184 53.0618 12.951L50.8572 10.7245C49.5032 9.35713 47.4054 9.08275 45.7531 10.0588L42.426 12.0244C41.5085 11.5386 40.5599 11.1158 39.5845 10.7605C39.2593 10.6435 38.9342 10.5311 38.6046 10.4276L37.6292 6.66286C37.1482 4.79171 35.4691 3.4873 33.5584 3.4873H30.4407C28.5256 3.4873 26.8509 4.79171 26.3654 6.66286L25.3901 10.4276C25.0605 10.5311 24.7309 10.6435 24.4102 10.7605C23.4348 11.1158 22.4861 11.5386 21.5686 12.0244L18.2416 10.0588C16.5892 9.08275 14.4915 9.35263 13.1375 10.7245L10.9373 12.951C9.58333 14.3184 9.31165 16.4369 10.2781 18.1056L12.2245 21.4656C12.033 21.8299 11.8503 22.2033 11.6811 22.5811C11.6054 22.743 11.5341 22.9095 11.4629 23.0759C11.3871 23.2558 11.3159 23.4312 11.2402 23.6156C11.2402 23.6246 11.2313 23.6336 11.2313 23.6426C11.16 23.8135 11.0976 23.9845 11.0353 24.1509C11.0308 24.1689 11.0219 24.1869 11.0175 24.2049C10.9507 24.3893 10.8883 24.5692 10.826 24.7536C10.7636 24.9425 10.7012 25.1314 10.6433 25.3248L6.91547 26.3099C5.06267 26.8002 3.7666 28.4914 3.7666 30.4255V33.5741C3.7666 35.5082 5.06267 37.1994 6.91547 37.6897L10.6433 38.6748C10.6923 38.8412 10.7502 39.0076 10.8037 39.1695C10.915 39.5024 11.0308 39.8307 11.1555 40.1546C11.2802 40.4829 11.4139 40.8023 11.5519 41.1216C11.69 41.441 11.837 41.7514 11.9929 42.0662C12.0686 42.2191 12.1487 42.3766 12.2289 42.5295L10.2826 45.8895C9.3161 47.5582 9.58333 49.6812 10.9418 51.0441L13.1464 53.2706C14.5004 54.638 16.5981 54.9124 18.2505 53.9318L21.5776 51.9662C22.7979 52.6184 24.0762 53.1537 25.399 53.5675L26.3744 57.3323C26.8598 59.2034 28.53 60.5123 30.4496 60.5123H33.5673C35.4825 60.5123 37.1571 59.2034 37.6381 57.3323L38.6135 53.5675C39.9319 53.1537 41.2146 52.6184 42.4349 51.9662L45.762 53.9318C47.4143 54.9079 49.5121 54.638 50.8661 53.2706L53.0707 51.0441C54.4247 49.6767 54.6964 47.5582 53.7299 45.8895L51.7791 42.5295C52.2601 41.6029 52.6788 40.6449 53.0307 39.6598C53.1465 39.3315 53.2578 39.0031 53.3602 38.6703L57.0881 37.6852C58.9409 37.1949 60.2325 35.5037 60.2325 33.5696V30.421C60.2325 28.4869 58.9409 26.7957 57.0881 26.3054L57.0792 26.3099ZM58.117 35.2158L51.984 36.8396L51.65 36.9251L51.4896 37.5098C51.3783 37.9056 51.258 38.3014 51.1244 38.6883C50.9908 39.0751 50.8483 39.4529 50.6968 39.8262C50.3851 40.5774 50.0332 41.3151 49.6368 42.0257L49.3384 42.5565L52.7144 48.3813L48.2116 52.9288L42.4438 49.5238L41.9183 49.8207H41.9094C40.502 50.6303 39.0055 51.251 37.4466 51.6918L36.8676 51.8538L35.1796 58.3803H28.8106L27.1181 51.8538L26.5347 51.6918C24.9758 51.251 23.4749 50.6258 22.063 49.8207L21.5375 49.5193L15.7697 52.9288L11.2669 48.3813L14.6385 42.5565L14.3356 42.0167C14.2376 41.8368 14.1396 41.6614 14.0461 41.477C13.8635 41.1216 13.6853 40.7573 13.5205 40.3885C13.427 40.1726 13.3335 39.9567 13.2489 39.7408C13.1197 39.4349 12.9994 39.1201 12.8925 38.8007C12.7456 38.3734 12.6075 37.9416 12.4872 37.5053L12.3269 36.9161L5.86437 35.2068V28.7748L12.3269 27.0656L12.4872 26.4808C12.6476 25.8916 12.8391 25.3069 13.0573 24.7356C13.1999 24.3533 13.3557 23.9755 13.5205 23.6021C13.6497 23.3233 13.7789 23.0489 13.9125 22.7745C14.0505 22.5001 14.1931 22.2303 14.34 21.9649L14.634 21.4296L11.2624 15.6048L15.7653 11.0574L21.2346 14.2914L21.533 14.4668L22.0586 14.1654C23.1141 13.5627 24.2276 13.0589 25.3722 12.6631C25.7553 12.5282 26.1383 12.4067 26.5302 12.2988L27.1137 12.1324L28.8062 5.60584H35.1752L36.8632 12.1324L37.4333 12.2943C37.8297 12.4067 38.2216 12.5327 38.6135 12.6676C38.9921 12.8026 39.3662 12.942 39.7359 13.0949C40.4842 13.4098 41.2146 13.7651 41.9227 14.1699L42.4483 14.4713L48.2116 11.0619L52.7189 15.6093L49.3429 21.4341L49.6413 21.9649C50.1357 22.8555 50.5632 23.7866 50.924 24.7356C51.0309 25.019 51.1333 25.3114 51.2268 25.6037C51.3204 25.8916 51.4095 26.1885 51.4896 26.4808L51.65 27.0656L58.1125 28.7748V35.2068L58.117 35.2158ZM31.3449 33.1333L27.8129 29.5664L26.2541 31.1407L29.9597 34.883C30.3427 35.2698 30.8416 35.4632 31.3449 35.4632C31.8481 35.4632 32.347 35.2698 32.73 34.883L42.9783 24.5332L41.4195 22.9589L31.3493 33.1333H31.3449Z" fill="#00B7B5"/>
</svg>
