<svg width="64" height="64" viewBox="0 0 64 64" fill="none" xmlns="http://www.w3.org/2000/svg">
<path d="M44.1197 24.8558H41.3093C41.1846 24.8558 41.0733 24.8647 40.9619 24.8825C39.7015 25.0473 38.7484 26.1429 38.7484 27.4212V47.5303H40.5299V26.6418H44.8992V47.5303H46.6807V27.4212C46.6807 26.0093 45.5316 24.8602 44.1197 24.8602V24.8558ZM34.4014 47.5259H36.183V35.6475C36.183 34.2356 35.0339 33.0865 33.622 33.0865H30.8116C29.3997 33.0865 28.2507 34.2356 28.2507 35.6475V47.5259H30.0322V34.8636H34.4014V47.5259ZM56.1629 22.8337C53.7133 16.3801 48.8943 11.2671 42.601 8.43443C36.3032 5.60178 29.284 5.39245 22.8303 7.84207C16.3767 10.2917 11.2637 15.1063 8.43102 21.404C5.59837 27.7018 5.38903 34.7211 7.83865 41.1747C10.2883 47.6283 15.1073 52.7413 21.4006 55.574C24.7766 57.0928 28.3798 57.8544 31.9919 57.8544C34.8245 57.8544 37.6661 57.3867 40.4052 56.4425L39.7861 54.6431C34.0095 56.6296 27.7563 56.3445 22.1845 53.837C16.3544 51.2137 11.8917 46.4792 9.62019 40.5022C7.34873 34.5251 7.5447 28.0225 10.168 22.1879C12.7913 16.3578 17.5258 11.8951 23.5028 9.62361C29.4799 7.35215 35.9825 7.54812 41.8171 10.1714C47.6472 12.7948 52.1099 17.5292 54.3814 23.5063C56.6217 29.4076 56.4569 35.8212 53.9271 41.5978L51.8516 40.7382L53.3392 45.5038L57.7619 43.1923L55.6864 42.3327C58.4032 36.1062 58.5769 29.1983 56.1629 22.8382V22.8337ZM23.9037 47.5259H25.6897V32.5832C25.6897 31.1713 24.5406 30.0223 23.1287 30.0223H20.3139C18.902 30.0223 17.7529 31.1713 17.7529 32.5832V47.5214H19.5345V31.8038H23.9037V47.5214V47.5259ZM41.8839 22.375C44.1197 22.4819 46.026 20.7538 46.1329 18.518C46.2398 16.2821 44.5117 14.3759 42.2758 14.269C42.2046 14.269 42.1333 14.2645 42.0576 14.2645C39.9465 14.2734 38.1783 15.9303 38.0313 18.0414C37.9823 18.7362 38.1115 19.4221 38.4054 20.0456L34.584 23.0163C33.9115 22.4641 33.0742 22.1389 32.2057 22.0944C30.7804 22.0276 29.4354 22.709 28.6426 23.8848L26.5137 23.0609C26.5359 22.9139 26.5493 22.7625 26.5537 22.6066C26.6295 20.5355 25.0795 18.705 23.0352 18.4378C22.9238 18.4244 22.808 18.4111 22.6967 18.4066C21.6144 18.3532 20.5767 18.7273 19.775 19.4577C18.9733 20.1881 18.5012 21.1814 18.4477 22.2636C18.4255 22.6779 18.47 23.0921 18.5769 23.4885V23.5063L18.5903 23.5241L19.147 24.7266L19.1559 24.7444L19.1693 24.7623C19.8952 25.8134 21.0399 26.4503 22.3137 26.5126C23.7344 26.5794 25.084 25.898 25.8768 24.7222L28.0057 25.5506C27.9834 25.6887 27.9701 25.8223 27.9656 25.9559C27.8587 28.1917 29.5868 30.098 31.8226 30.2049C31.9741 30.2138 32.13 30.2093 32.2858 30.2049C34.2233 30.0846 35.8044 28.5926 36.0404 26.6596C36.134 25.8891 36.0137 25.123 35.6841 24.4282L39.5055 21.4619C40.1781 22.0142 41.0154 22.3394 41.8883 22.3839L41.8839 22.375ZM42.1912 16.0461C42.837 16.0772 43.4427 16.3846 43.8525 16.8923C44.2667 17.4045 44.436 18.0503 44.3246 18.705C44.1509 19.7428 43.2601 20.54 42.209 20.5934C42.1289 20.5934 42.0487 20.5934 41.973 20.5934C41.5187 20.5712 41.0867 20.4153 40.7214 20.1392C40.3963 19.8942 40.138 19.5646 39.9821 19.1905C39.8529 18.8787 39.795 18.5491 39.8084 18.2106C39.8708 16.9547 40.9397 15.9837 42.1912 16.0461ZM24.7722 22.6289V22.7001C24.7277 23.0965 24.5762 23.4795 24.3313 23.8091C23.877 24.4238 23.1554 24.7667 22.3983 24.7311C21.7658 24.6999 21.169 24.4059 20.7637 23.9205C20.501 23.6087 20.3273 23.2301 20.2604 22.8293C20.2337 22.6689 20.2248 22.5086 20.2337 22.3483C20.2961 21.0923 21.365 20.1213 22.6165 20.1837C23.8681 20.246 24.839 21.315 24.7767 22.5665V22.6289H24.7722ZM34.2544 26.5393C34.0807 27.5637 33.2033 28.3521 32.17 28.4189C32.081 28.4233 31.9919 28.4233 31.9028 28.4189C30.6513 28.3565 29.6803 27.292 29.7427 26.0361V25.9737L29.7516 25.898C29.7961 25.506 29.9476 25.1186 30.1881 24.789C30.6424 24.1788 31.3684 23.8314 32.1255 23.8715C32.5798 23.8938 33.0118 24.0496 33.377 24.3258C33.7022 24.5707 33.9605 24.9003 34.1164 25.2744C34.2812 25.6708 34.3302 26.1073 34.2544 26.5349V26.5393Z" fill="#00B7B5"/>
</svg>
